<svg width="14" height="14" viewBox="0 0 14 14" fill="none" xmlns="http://www.w3.org/2000/svg">
<path d="M2.41016 0C1.95443 0 1.5638 0.16276 1.23828 0.488281C0.91276 0.800781 0.75 1.19141 0.75 1.66016C0.75 2.11589 0.91276 2.50651 1.23828 2.83203C1.5638 3.15755 1.94792 3.32031 2.39062 3.32031C2.84635 3.32031 3.23698 3.15755 3.5625 2.83203C3.88802 2.50651 4.05078 2.11589 4.05078 1.66016C4.05078 1.20443 3.88802 0.813802 3.5625 0.488281C3.25 0.16276 2.86589 0 2.41016 0ZM10.457 4.375C9.81901 4.375 9.26562 4.52474 8.79688 4.82422C8.41927 5.07161 8.11979 5.40365 7.89844 5.82031H7.85938V4.57031H5.125V13.75H7.97656V9.19922C7.97656 8.70443 8.0026 8.32682 8.05469 8.06641C8.13281 7.67578 8.27604 7.38281 8.48438 7.1875C8.73177 6.96615 9.08333 6.85547 9.53906 6.85547C9.99479 6.85547 10.3398 6.98568 10.5742 7.24609C10.7695 7.45443 10.8997 7.76693 10.9648 8.18359C11.0039 8.43099 11.0234 8.79557 11.0234 9.27734V13.75H13.875V8.71094C13.875 7.78646 13.7904 7.04427 13.6211 6.48438C13.4258 5.80729 13.0938 5.29297 12.625 4.94141C12.1042 4.5638 11.3815 4.375 10.457 4.375ZM0.984375 4.57031V13.75H3.83594V4.57031H0.984375Z" fill="#0A0A0B"/>
</svg>
